<?xml version="1.0" standalone="no"?>
<!DOCTYPE svg PUBLIC "-//W3C//DTD SVG 20010904//EN"
 "http://www.w3.org/TR/2001/REC-SVG-20010904/DTD/svg10.dtd">
<svg version="1.0" xmlns="http://www.w3.org/2000/svg"
 width="1060.000000pt" height="1060.000000pt" viewBox="0 0 1060.000000 1060.000000"
 preserveAspectRatio="xMidYMid meet">
<metadata>
Created by potrace 1.14, written by Peter Selinger 2001-2017
</metadata>
<g transform="translate(0.000000,1060.000000) scale(0.100000,-0.100000)"
fill="#000000" stroke="none">
<path d="M0 5300 l0 -4930 1383 2 c1222 3 1382 5 1379 18 -7 30 -8 76 -1 101
4 15 3 32 -1 40 -5 7 -4 21 1 30 6 12 5 20 -1 24 -6 4 -7 11 -4 17 6 10 7 80
1 153 -1 17 1 42 4 56 4 15 3 32 -1 40 -5 7 -4 21 1 30 6 12 5 20 -1 24 -6 4
-7 11 -4 17 6 10 7 80 1 153 -1 17 1 42 4 56 4 15 3 32 -1 40 -5 7 -4 21 1 30
6 12 5 20 -1 24 -6 4 -7 11 -4 17 4 6 6 38 5 72 -3 100 -3 148 2 153 3 2 1 18
-3 34 -5 16 -5 29 -1 29 16 0 -2 50 -18 51 -9 0 -303 1 -653 1 -460 1 -638 4
-639 12 -1 6 -2 1677 -3 3714 -1 3283 1 3703 14 3706 8 3 294 5 635 5 341 0
632 0 647 0 24 1 27 4 20 24 -8 23 -7 79 1 101 3 7 1 19 -3 26 -5 8 -4 22 1
31 6 12 5 20 -1 24 -6 4 -7 11 -4 17 6 10 7 80 1 153 -1 17 1 42 4 56 4 15 3
32 -1 40 -5 7 -4 21 1 30 6 12 5 20 -1 24 -6 4 -7 11 -4 17 6 10 7 80 1 153
-1 17 1 42 4 56 4 15 3 32 -1 40 -5 7 -4 21 1 30 6 12 5 20 -1 24 -6 4 -7 11
-4 17 6 10 7 80 1 153 -1 17 1 42 5 58 3 15 3 27 -2 27 -5 0 -5 12 -2 28 4 15
6 39 4 55 l-3 27 -1380 0 -1379 0 0 -4930z"/>
<path d="M7837 10215 c-4 -8 -2 -17 3 -20 7 -4 7 -13 0 -24 -5 -10 -7 -21 -4
-24 10 -10 11 -42 3 -59 -6 -10 -5 -19 1 -23 7 -4 7 -12 0 -25 -7 -13 -7 -21
0 -25 6 -4 7 -13 1 -23 -4 -9 -6 -26 -4 -37 2 -11 4 -27 4 -35 -3 -60 -2 -113
3 -117 2 -3 1 -16 -4 -29 -6 -14 -6 -26 0 -29 6 -3 6 -15 0 -30 -5 -13 -6 -26
-2 -29 8 -5 8 -64 -1 -72 -3 -4 -2 -15 3 -25 7 -12 7 -20 0 -24 -7 -4 -7 -12
0 -25 6 -10 6 -21 1 -24 -9 -6 -7 -54 3 -63 3 -3 1 -14 -4 -24 -7 -12 -7 -20
0 -24 7 -4 7 -12 0 -25 -6 -11 -6 -21 -1 -25 6 -3 6 -17 1 -35 -5 -18 -5 -32
1 -35 5 -4 5 -14 -1 -25 -7 -13 -7 -21 0 -25 7 -4 7 -12 0 -24 -5 -10 -7 -21
-4 -24 8 -8 12 -67 4 -67 -7 0 -3 -91 5 -98 2 -3 298 -5 657 -6 l652 -1 0
-3715 0 -3715 -650 -1 c-358 0 -656 -4 -663 -8 -8 -5 -9 -12 -2 -20 6 -7 6
-17 1 -26 -5 -8 -4 -22 2 -34 6 -12 10 -23 9 -26 -2 -3 -7 -13 -12 -22 -6 -10
-5 -19 1 -23 7 -4 7 -12 0 -25 -7 -13 -7 -21 0 -25 6 -4 7 -13 1 -23 -4 -9 -6
-26 -4 -37 2 -11 4 -27 4 -35 -3 -60 -2 -113 3 -117 2 -3 1 -16 -4 -29 -6 -14
-6 -26 0 -29 6 -3 6 -15 0 -30 -5 -13 -6 -26 -2 -29 8 -5 8 -64 -1 -72 -3 -4
-2 -15 3 -25 7 -12 7 -20 0 -24 -7 -4 -7 -12 0 -25 6 -10 6 -21 1 -24 -9 -6
-7 -54 3 -63 3 -3 1 -14 -4 -24 -7 -12 -7 -20 0 -24 7 -4 7 -12 0 -25 -6 -11
-6 -21 -1 -25 6 -3 6 -17 1 -35 -5 -18 -5 -32 1 -35 5 -4 5 -14 -1 -25 -7 -13
-7 -21 0 -25 6 -4 7 -13 1 -23 -6 -11 -6 -24 0 -34 6 -10 5 -26 -1 -42 -6 -16
-6 -26 0 -26 6 0 6 -9 0 -25 -6 -16 -6 -25 0 -25 6 0 6 -9 0 -25 l-10 -25
1385 0 1385 0 0 4930 0 4930 -1379 0 c-1203 0 -1380 -2 -1384 -15z"/>
<path d="M6472 8780 c-9 -16 -20 -30 -24 -30 -5 0 -8 -7 -8 -15 0 -8 -4 -15
-10 -15 -5 0 -10 -6 -10 -13 0 -7 -9 -23 -20 -35 -11 -12 -20 -26 -20 -32 0
-5 -4 -10 -10 -10 -5 0 -10 -7 -10 -15 0 -8 -4 -15 -10 -15 -5 0 -10 -7 -10
-15 0 -8 -4 -15 -10 -15 -5 0 -10 -6 -10 -14 0 -8 -3 -16 -8 -18 -4 -1 -30
-37 -56 -78 -27 -41 -52 -77 -55 -80 -4 -3 -22 -30 -41 -60 -18 -30 -43 -65
-54 -77 -10 -13 -16 -23 -11 -23 5 0 0 -7 -11 -15 -10 -8 -15 -15 -10 -15 6 0
3 -6 -5 -12 -8 -7 -55 -74 -104 -148 -50 -74 -92 -137 -95 -140 -3 -3 -72
-106 -155 -230 -82 -124 -152 -227 -156 -230 -3 -3 -14 -20 -24 -37 -11 -18
-23 -33 -28 -33 -4 0 -6 -4 -2 -9 3 -5 1 -12 -4 -15 -5 -3 -44 -59 -88 -123
-43 -65 -84 -124 -90 -131 -7 -7 -13 -17 -13 -22 0 -5 -6 -15 -12 -22 -7 -8
-17 -21 -23 -30 -5 -9 -48 -73 -95 -142 l-85 -126 -18 22 c-10 13 -25 31 -32
41 -8 9 -12 17 -9 17 2 0 -7 12 -21 27 -14 15 -25 31 -25 35 0 6 -82 122 -110
155 -5 7 -10 16 -10 20 0 5 -11 21 -25 36 -14 15 -23 27 -19 27 4 0 -2 10 -13
23 -19 21 -107 144 -128 178 -5 9 -29 43 -52 75 -48 68 -202 289 -268 384 -24
36 -62 90 -85 120 -22 30 -43 62 -47 70 -4 8 -9 17 -13 20 -3 3 -30 40 -60 83
-29 42 -58 77 -64 78 -49 3 -1938 1 -1941 -3 -3 -2 4 -14 15 -26 12 -12 17
-22 13 -22 -4 0 -3 -4 3 -8 6 -4 77 -106 159 -227 82 -121 151 -222 154 -225
3 -3 12 -17 20 -32 8 -16 18 -28 23 -28 4 0 8 -4 8 -9 0 -6 32 -55 70 -111 39
-56 70 -103 70 -106 0 -3 9 -14 20 -26 11 -12 20 -28 20 -35 0 -7 5 -13 10
-13 6 0 10 -7 10 -16 0 -8 5 -12 10 -9 6 3 10 1 10 -5 0 -10 114 -184 130
-200 3 -3 11 -17 19 -32 8 -16 18 -28 23 -28 4 0 8 -6 8 -12 1 -7 14 -29 30
-48 17 -19 30 -39 30 -45 0 -5 11 -22 25 -37 14 -15 25 -30 25 -33 0 -7 38
-63 64 -92 11 -13 16 -23 12 -23 -4 0 3 -10 14 -22 12 -13 30 -40 41 -60 11
-21 24 -38 29 -38 6 0 10 -7 10 -15 0 -8 5 -15 10 -15 6 0 10 -5 10 -10 0 -6
23 -43 50 -83 28 -40 56 -80 63 -91 6 -10 18 -25 25 -32 7 -8 10 -14 5 -14 -4
0 -3 -4 3 -8 16 -10 94 -129 94 -142 0 -6 5 -8 10 -5 6 3 10 1 10 -5 0 -12
101 -163 112 -168 5 -2 8 -8 8 -14 0 -6 14 -27 30 -48 17 -21 30 -42 30 -47 0
-6 9 -18 20 -28 11 -10 20 -24 20 -32 0 -7 4 -13 8 -13 5 0 15 -12 22 -27 8
-16 22 -37 31 -48 14 -17 204 -295 234 -343 6 -8 27 -40 47 -69 40 -59 40 -57
-9 -108 -7 -8 -13 -17 -13 -20 0 -4 -11 -21 -25 -39 -35 -43 -29 -36 -140
-186 -55 -74 -104 -140 -110 -147 -24 -29 -32 -40 -63 -85 -18 -25 -39 -54
-48 -62 -8 -9 -13 -16 -10 -16 6 0 -15 -28 -41 -55 -7 -8 -13 -18 -13 -24 0
-5 -6 -14 -12 -18 -7 -4 -33 -37 -58 -73 -24 -36 -52 -74 -62 -84 -10 -11 -18
-23 -18 -26 0 -4 -11 -20 -25 -36 -14 -16 -35 -45 -47 -64 -12 -19 -25 -37
-28 -40 -3 -3 -22 -27 -41 -55 -18 -27 -38 -55 -44 -61 -10 -12 -129 -178
-260 -364 -41 -58 -78 -109 -82 -115 -4 -5 -21 -30 -38 -55 -16 -25 -32 -47
-35 -50 -3 -3 -25 -34 -49 -70 -25 -36 -48 -67 -53 -68 -4 -2 -8 -8 -8 -12 0
-9 -230 -346 -282 -411 -15 -20 -28 -41 -28 -47 0 -6 -3 -12 -8 -14 -16 -7
-295 -418 -284 -418 4 0 2 -4 -4 -8 -16 -11 -182 -290 -205 -344 -6 -16 -14
-28 -18 -28 -4 0 -7 -10 -9 -23 -1 -21 3 -23 43 -22 25 0 45 4 45 8 0 5 5 5
12 1 17 -11 88 -12 94 -2 3 5 10 5 16 2 18 -12 378 -10 378 1 0 7 3 7 8 0 6
-9 119 -13 147 -5 6 1 12 1 15 0 15 -6 393 -4 397 3 2 4 9 4 15 1 18 -12 218
-11 218 1 0 6 3 7 8 0 6 -9 119 -13 147 -5 6 1 12 1 15 0 21 -8 150 -4 150 4
0 7 3 8 8 1 12 -16 95 -11 122 8 13 9 21 17 17 17 -5 0 3 15 17 33 15 19 26
39 26 45 0 7 4 12 9 12 5 0 11 8 15 18 6 18 27 53 37 62 3 3 8 12 12 20 4 8
29 49 57 90 27 41 64 100 81 130 18 30 35 57 39 60 3 3 31 46 60 95 30 50 57
92 60 95 3 3 27 39 54 80 27 41 53 77 58 78 4 2 8 9 8 15 0 7 11 24 25 39 14
15 25 30 25 34 0 4 15 25 33 48 18 23 62 82 97 131 71 99 86 119 113 147 9 10
17 21 17 24 0 3 10 18 23 33 12 15 33 43 47 61 25 34 195 245 215 266 5 7 37
43 70 82 33 39 65 71 70 71 24 2 225 -256 225 -288 0 -6 5 -11 10 -11 6 0 10
-6 10 -14 0 -7 7 -19 15 -26 8 -7 12 -16 9 -21 -3 -5 0 -9 5 -9 6 0 11 -7 11
-15 0 -8 5 -15 10 -15 6 0 10 -5 10 -11 0 -9 65 -121 168 -289 9 -14 16 -27
16 -30 0 -3 6 -12 13 -20 7 -8 13 -19 12 -24 0 -5 3 -12 8 -15 5 -3 44 -64 86
-136 42 -71 80 -135 86 -141 5 -6 23 -38 41 -70 17 -32 41 -77 54 -99 52 -95
97 -176 146 -270 29 -55 63 -119 77 -142 13 -24 20 -43 16 -43 -4 0 -3 -4 2
-8 6 -4 69 -124 140 -267 71 -143 133 -263 138 -266 5 -3 8 -9 8 -13 -1 -3 -1
-9 -1 -12 0 -4 48 27 105 68 5 5 35 26 65 47 30 22 60 44 65 48 6 4 41 28 78
53 37 25 67 48 67 52 0 5 5 8 10 8 6 0 37 19 69 43 33 23 67 48 78 55 10 7 88
61 173 121 85 60 170 120 188 133 18 13 39 29 47 36 7 6 18 12 24 12 6 0 11 5
11 10 0 6 7 10 15 10 8 0 15 3 15 8 0 4 25 23 55 42 30 19 55 38 55 43 0 4 6
7 14 7 8 0 16 4 18 9 2 4 21 20 43 35 22 14 61 41 86 59 25 17 69 48 98 67 28
19 51 38 51 42 0 5 4 8 10 8 8 0 282 189 317 220 7 5 15 10 19 10 4 0 14 7 23
15 9 8 54 42 101 74 47 33 90 63 95 68 33 26 105 73 112 73 4 0 22 14 40 30
18 17 36 30 42 30 16 0 20 30 16 135 -5 147 -15 443 -20 580 -6 173 -15 417
-20 590 -2 83 -7 220 -11 305 -3 85 -7 229 -9 320 -2 91 -5 165 -6 165 0 0 -2
47 -4 105 -10 344 -17 525 -22 533 -2 4 1 14 7 22 7 8 8 15 4 15 -6 0 -9 402
-9 946 0 641 -3 948 -10 954 -17 14 -465 238 -465 232 0 -2 -6 1 -13 7 -16 12
-251 132 -301 152 -17 7 -35 17 -41 21 -18 15 -329 168 -341 168 -7 0 -14 3
-16 8 -4 9 -130 73 -142 71 -5 0 -12 3 -15 8 -3 4 -28 19 -56 32 -27 14 -53
29 -57 35 -4 6 -8 8 -8 4 0 -4 -105 46 -234 111 -129 66 -237 116 -240 113 -3
-3 -6 0 -6 6 0 22 -21 12 -38 -18z m530 -1612 c-1 -90 -4 -770 -7 -1513 -4
-742 -8 -1542 -9 -1777 -1 -235 -4 -430 -8 -433 -3 -3 -11 8 -18 25 -7 16 -16
30 -21 30 -5 0 -9 6 -9 14 0 8 -3 16 -8 18 -10 4 -112 157 -112 168 0 6 -4 10
-8 10 -4 0 -16 15 -27 33 -10 17 -66 104 -124 192 -57 88 -144 221 -192 295
-48 74 -92 140 -97 146 -5 5 -15 21 -22 35 -7 13 -16 26 -19 29 -3 3 -12 17
-20 32 -8 15 -21 36 -30 46 -22 26 -41 54 -47 75 -4 9 -10 17 -14 17 -5 0 -11
8 -14 18 -4 10 -14 27 -24 38 -9 10 -23 31 -31 46 -8 15 -22 37 -33 47 -10 11
-18 23 -18 26 0 3 -16 28 -35 55 -19 27 -35 54 -35 60 0 5 -4 10 -10 10 -5 0
-17 15 -26 33 -9 17 -20 34 -23 37 -3 3 -15 19 -27 35 -11 17 -41 59 -65 93
-24 35 -48 71 -54 80 -11 17 -13 19 -84 112 -42 54 -48 67 -39 85 6 11 14 22
17 25 6 5 582 868 591 885 3 6 41 63 85 128 44 66 97 144 117 175 20 32 41 62
47 69 6 7 11 17 11 23 0 5 5 10 10 10 6 0 10 7 10 15 0 8 5 15 10 15 6 0 10 6
10 13 0 7 8 22 18 33 9 10 73 105 142 209 68 105 129 195 135 200 6 6 14 17
18 25 4 8 15 27 25 41 9 15 26 40 36 57 11 17 22 29 24 27 3 -2 4 -78 4 -167z"/>
</g>
</svg>
