<?xml version="1.0" encoding="utf-8"?>
<!-- Generator: Adobe Illustrator 25.4.1, SVG Export Plug-In . SVG Version: 6.00 Build 0)  -->
<svg version="1.1" id="Capa_1" xmlns="http://www.w3.org/2000/svg" xmlns:xlink="http://www.w3.org/1999/xlink" x="0px" y="0px"
	 viewBox="0 0 574.4 271.91" style="enable-background:new 0 0 574.4 271.91;" xml:space="preserve">
<style type="text/css">
	.st0{fill:#13748E;}
	.st1{fill:#5D4595;}
	.std2{fill:#ffffff;}
</style>
<g>
	<path d="M294.21,208.4L294.21,208.4z"/>
	<path class="st0" d="M286.23,208.5"/>
	<g>
		<path class="std2" d="M462.23,96.75c-3.15-11.67-7.6-21.49-13.15-29.46c-5.56-7.97-12.04-13.89-19.64-17.97c-7.41-3.89-15.38-5.93-23.71-5.93
			c-8.15,0-15.93,2.04-23.34,5.93c-7.41,4.08-13.89,10-19.64,17.97c-5.56,7.97-10,17.79-13.34,29.46
			c-1.85,6.67-3.15,10.06-3.71,18.03c-4.08-9.82-8.15-19.27-12.23-28.35c-5.74-13.15-11.49-25.94-17.41-38.35h-38.35
			c-6.11,12.41-11.86,25.2-17.6,38.35c-5.56,12.97-11.3,26.68-17.04,41.31c-5.93,14.45-11.86,30.01-17.97,46.32
			c-5.93,16.49-12.41,34.46-19.08,53.73l19.27-23.28c2.04-6.11,13.63-15.61,16.04-22.09c2.22-6.67,11.23-2.08,19.9,6.47h70.03
			c2.41,6.48,4.63,13.15,7.04,19.64c2.22,6.67,4.45,13.15,6.3,19.27c0,0,54.47-0.74,61.32-0.74c8.71,0,16.67-1.85,24.27-5.93
			c7.41-3.89,13.89-9.82,19.45-17.79c5.37-7.78,9.63-17.6,12.78-29.27c3.15-11.67,4.82-25.2,4.82-40.57
			C467.23,118.11,465.38,108.42,462.23,96.75z M270.3,156.83c2.96-7.78,5.74-15.19,8.34-22.42c2.78-7.04,5.37-13.53,7.6-19.45
			c2.22-5.74,4.08-10.93,5.93-15.56c1.67-4.45,2.96-7.97,3.89-10.56c1.11,2.59,2.59,6.11,4.26,10.56c1.67,4.45,3.71,9.63,6.11,15.56
			c2.22,5.93,4.82,12.41,7.41,19.45c2.59,7.04,5.19,14.64,7.97,22.42H270.3z M426.7,149.73c-1.11,5.23-2.64,9.77-4.73,13.63
			c-2.09,3.72-4.73,6.61-7.79,8.67c-3.06,2.07-6.54,3.17-10.29,3.17c-3.89,0-7.37-1.1-10.43-3.17c-3.06-2.07-5.56-4.96-7.65-8.67
			c-2.09-3.85-3.75-8.4-4.87-13.63c-1.11-5.23-1.67-11.15-1.67-17.76c0-6.47,0.56-12.25,1.67-17.62c1.11-5.37,2.64-7.06,4.73-10.78
			c2.09-3.85,4.59-6.75,7.65-8.95c3.06-2.06,6.54-3.17,10.43-3.17c3.75,0,7.23,1.1,10.29,3.03c3.06,2.07,5.7,5.09,7.79,8.81
			c2.09,3.85,3.75,5.55,4.87,10.92c1.11,5.23,1.67,11.15,1.67,17.76C428.37,138.58,427.81,144.5,426.7,149.73z"/>
	</g>
	<path class="st0" d="M152.72,197.43c3.71-5.37,7.41-10.37,11.12-15.19c3.7-4.82,6.85-8.52,9.26-11.12
		c3.49,3.16,5.54,7.19,7.98,11.29c2.99,5.04,6.26,10.33,9.63,16.05c5.93,10.19,10.3,19.32,15.31,29.33l55.21-38.9l-2.34-70.19V72.52
		l-49.1-24.59l-35.02,51.87l-24.72-35.4h-48.91l48.99,72.09c-12.6,16.86-24.08,32.61-34.46,47.61
		c-10.19,15.01-13.44,18.18-21.03,32.26l46.13,0 M222.09,182.41c-6.11-8.71-25.02-38.85-32.61-48.3l33.07-49.61L222.09,182.41z"/>
	<g>
		<path class="st1" d="M13.15,15.68H82.2V46H49.33v186H82.2v30.32H13.15V15.68z"/>
	</g>
	<g>
		<g>
			<path class="st1" d="M556.13,257.07h-69.05v-30.32h32.87v-186h-32.87V10.43h69.05V257.07z"/>
		</g>
	</g>
</g>
</svg>
